<svg width="25" height="26" viewBox="0 0 25 26" fill="none" xmlns="http://www.w3.org/2000/svg">
<path d="M10.4178 20.8332C12.464 20.8352 14.4649 20.2309 16.1678 19.0965L21.487 24.4003C22.0307 24.9498 22.8367 25.1478 23.5731 24.9127C24.3095 24.6777 24.8517 24.0493 24.9765 23.2865C25.1013 22.5236 24.7876 21.7553 24.1645 21.2978L18.427 17.0686C21.5407 13.3149 21.6316 7.90293 18.6459 4.04671C15.6601 0.190495 10.3977 -1.07654 5.98396 0.998074C1.5702 3.07269 -0.81212 7.933 0.251812 12.6926C1.31574 17.4521 5.54082 20.8354 10.4178 20.8332ZM23.6712 21.9695C23.9574 22.1792 24.1375 22.5037 24.1642 22.8575C24.1909 23.2114 24.0614 23.5592 23.8099 23.8095C23.323 24.2698 22.5614 24.2698 22.0745 23.8095L16.8503 18.6011C17.208 18.3199 17.5469 18.0156 17.8649 17.6903L23.6712 21.9695ZM10.4178 0.833214C15.7106 0.833214 20.0012 5.12382 20.0012 10.4165C20.0012 15.7093 15.7106 19.9999 10.4178 19.9999C5.1251 19.9999 0.834495 15.7093 0.834495 10.4165C0.840465 5.12629 5.12757 0.839184 10.4178 0.833214Z" fill="white"/>
<path d="M0.83431 21.6665H1.66764C2.12788 21.6665 2.50098 21.2934 2.50098 20.8332V19.9998C2.50098 19.5396 2.12788 19.1665 1.66764 19.1665H0.83431C0.374073 19.1665 0.000976562 19.5396 0.000976562 19.9998V20.8332C0.000976562 21.2934 0.374073 21.6665 0.83431 21.6665ZM0.83431 19.9998H1.66764V20.8332H0.83431V19.9998Z" fill="white"/>
<path d="M5.41797 6.24984V8.74984C5.41797 9.21007 5.79106 9.58317 6.2513 9.58317H8.7513C9.21154 9.58317 9.58464 9.21007 9.58464 8.74984V6.24984C9.58464 5.7896 9.21154 5.4165 8.7513 5.4165H6.2513C5.79106 5.4165 5.41797 5.7896 5.41797 6.24984ZM8.7513 8.74984H6.2513V6.24984H8.7513V8.74984Z" fill="white"/>
<path d="M12.0843 9.58317H14.5843C15.0445 9.58317 15.4176 9.21007 15.4176 8.74984V6.24984C15.4176 5.7896 15.0445 5.4165 14.5843 5.4165H12.0843C11.6241 5.4165 11.251 5.7896 11.251 6.24984V8.74984C11.251 9.21007 11.6241 9.58317 12.0843 9.58317ZM12.0843 6.24984H14.5843V8.74984H12.0843V6.24984Z" fill="white"/>
<path d="M8.7513 11.25H6.2513C5.79106 11.25 5.41797 11.6231 5.41797 12.0833V14.5833C5.41797 15.0436 5.79106 15.4167 6.2513 15.4167H8.7513C9.21154 15.4167 9.58464 15.0436 9.58464 14.5833V12.0833C9.58464 11.6231 9.21154 11.25 8.7513 11.25ZM6.2513 14.5833V12.0833H8.7513V14.5833H6.2513Z" fill="white"/>
<path d="M11.251 14.5833C11.251 15.0436 11.6241 15.4167 12.0843 15.4167H14.5843C15.0445 15.4167 15.4176 15.0436 15.4176 14.5833V12.0833C15.4176 11.6231 15.0445 11.25 14.5843 11.25H12.0843C11.6241 11.25 11.251 11.6231 11.251 12.0833V14.5833ZM12.0843 12.0833H14.5843V14.5833H12.0843V12.0833Z" fill="white"/>
<path d="M0.83431 25H1.66764C2.12788 25 2.50098 24.6269 2.50098 24.1667V23.3333C2.50098 22.8731 2.12788 22.5 1.66764 22.5H0.83431C0.374073 22.5 0.000976562 22.8731 0.000976562 23.3333V24.1667C0.000976562 24.6269 0.374073 25 0.83431 25ZM0.83431 23.3333H1.66764V24.1667H0.83431V23.3333Z" fill="white"/>
<path d="M4.16781 22.5C3.70757 22.5 3.33447 22.8731 3.33447 23.3333V24.1667C3.33447 24.6269 3.70757 25 4.16781 25H5.00114C5.46138 25 5.83447 24.6269 5.83447 24.1667V23.3333C5.83447 22.8731 5.46138 22.5 5.00114 22.5H4.16781ZM4.16781 24.1667V23.3333H5.00114V24.1667H4.16781Z" fill="white"/>
<path d="M7.5013 22.5C7.04106 22.5 6.66797 22.8731 6.66797 23.3333V24.1667C6.66797 24.6269 7.04106 25 7.5013 25H8.33464C8.79487 25 9.16797 24.6269 9.16797 24.1667V23.3333C9.16797 22.8731 8.79487 22.5 8.33464 22.5H7.5013ZM7.5013 24.1667V23.3333H8.33464V24.1667H7.5013Z" fill="white"/>
<path d="M10.8343 22.5C10.3741 22.5 10.001 22.8731 10.001 23.3333V24.1667C10.001 24.6269 10.3741 25 10.8343 25H11.6676C12.1279 25 12.501 24.6269 12.501 24.1667V23.3333C12.501 22.8731 12.1279 22.5 11.6676 22.5H10.8343ZM10.8343 24.1667V23.3333H11.6676V24.1667H10.8343Z" fill="white"/>
<path d="M14.1678 22.5C13.7076 22.5 13.3345 22.8731 13.3345 23.3333V24.1667C13.3345 24.6269 13.7076 25 14.1678 25H15.0011C15.4614 25 15.8345 24.6269 15.8345 24.1667V23.3333C15.8345 22.8731 15.4614 22.5 15.0011 22.5H14.1678ZM14.1678 24.1667V23.3333H15.0011V24.1667H14.1678Z" fill="white"/>
<path d="M20.0013 2.5H20.8346C21.2949 2.5 21.668 2.1269 21.668 1.66667V0.833333C21.668 0.373096 21.2949 0 20.8346 0H20.0013C19.5411 0 19.168 0.373096 19.168 0.833333V1.66667C19.168 2.1269 19.5411 2.5 20.0013 2.5ZM20.0013 0.833333H20.8346V1.66667H20.0013V0.833333Z" fill="white"/>
<path d="M24.1676 0H23.3343C22.8741 0 22.501 0.373096 22.501 0.833333V1.66667C22.501 2.1269 22.8741 2.5 23.3343 2.5H24.1676C24.6279 2.5 25.001 2.1269 25.001 1.66667V0.833333C25.001 0.373096 24.6279 0 24.1676 0ZM24.1676 1.66667H23.3343V0.833333H24.1676V1.66667Z" fill="white"/>
<path d="M24.1676 3.3335H23.3343C22.8741 3.3335 22.501 3.70659 22.501 4.16683V5.00016C22.501 5.4604 22.8741 5.8335 23.3343 5.8335H24.1676C24.6279 5.8335 25.001 5.4604 25.001 5.00016V4.16683C25.001 3.70659 24.6279 3.3335 24.1676 3.3335ZM24.1676 5.00016H23.3343V4.16683H24.1676V5.00016Z" fill="white"/>
<path d="M24.1676 6.6665H23.3343C22.8741 6.6665 22.501 7.0396 22.501 7.49984V8.33317C22.501 8.79341 22.8741 9.1665 23.3343 9.1665H24.1676C24.6279 9.1665 25.001 8.79341 25.001 8.33317V7.49984C25.001 7.0396 24.6279 6.6665 24.1676 6.6665ZM24.1676 8.33317H23.3343V7.49984H24.1676V8.33317Z" fill="white"/>
<path d="M24.1676 10H23.3343C22.8741 10 22.501 10.3731 22.501 10.8333V11.6667C22.501 12.1269 22.8741 12.5 23.3343 12.5H24.1676C24.6279 12.5 25.001 12.1269 25.001 11.6667V10.8333C25.001 10.3731 24.6279 10 24.1676 10ZM24.1676 11.6667H23.3343V10.8333H24.1676V11.6667Z" fill="white"/>
<path d="M24.1676 13.3335H23.3343C22.8741 13.3335 22.501 13.7066 22.501 14.1668V15.0002C22.501 15.4604 22.8741 15.8335 23.3343 15.8335H24.1676C24.6279 15.8335 25.001 15.4604 25.001 15.0002V14.1668C25.001 13.7066 24.6279 13.3335 24.1676 13.3335ZM24.1676 15.0002H23.3343V14.1668H24.1676V15.0002Z" fill="white"/>
<path d="M10.418 19.1665C15.2505 19.1665 19.168 15.249 19.168 10.4165C19.168 5.58401 15.2505 1.6665 10.418 1.6665C10.1879 1.6665 10.0013 1.85305 10.0013 2.08317C10.0013 2.31329 10.1879 2.49984 10.418 2.49984C14.555 2.50156 17.9925 5.68936 18.3057 9.81446C18.6189 13.9396 15.7021 17.6098 11.6128 18.2361C7.52348 18.8624 3.64183 16.2334 2.70605 12.2037C1.77027 8.17393 4.09617 4.10341 8.04298 2.86359C8.18898 2.82226 8.30097 2.70482 8.33533 2.55703C8.36969 2.40923 8.32099 2.25444 8.2082 2.15294C8.0954 2.05145 7.93635 2.01929 7.79299 2.069C3.67132 3.36429 1.112 7.47397 1.76763 11.7443C2.42327 16.0147 6.09758 19.1673 10.418 19.1665Z" fill="white"/>
</svg>
