<svg width="180" height="51" viewBox="0 0 180 51" fill="none" xmlns="http://www.w3.org/2000/svg">
<path d="M25.0737 15.7669L37.0084 0H0V42.045H5.36512L18.7232 24.3073L7.66445 7.66445H19.5991L25.0737 15.7669Z" fill="#C0CCF7"/>
<path d="M50.3663 10.5112H44.3442L32.1906 26.6066L42.9208 42.8114H30.9862L25.8401 35.0375L14.2339 50.3664H50.3663V10.5112Z" fill="#F66450"/>
<path d="M76.3914 37.5837L71.1753 30.663L65.891 37.5837H62.2432L69.3684 28.3447L62.5841 19.5148H66.232L71.2094 26.0264L76.1528 19.5148H79.7325L72.914 28.3447L80.1075 37.5837H76.3914Z" fill="white"/>
<path d="M91.2277 34.9245C93.3869 34.9245 95.1256 34.1972 96.4438 32.7426L98.2166 34.8563C97.4211 35.8109 96.4097 36.5382 95.1824 37.0382C93.9778 37.5383 92.6255 37.7883 91.1254 37.7883C89.2163 37.7883 87.523 37.4019 86.0457 36.6291C84.5683 35.8336 83.4206 34.7313 82.6024 33.3222C81.8069 31.913 81.4091 30.3221 81.4091 28.5493C81.4091 26.7992 81.7955 25.2196 82.5683 23.8104C83.3638 22.4013 84.4433 21.3103 85.807 20.5376C87.1934 19.7421 88.7503 19.3444 90.4777 19.3444C92.1141 19.3444 93.6028 19.7194 94.9438 20.4694C96.2847 21.1967 97.3529 22.2308 98.1484 23.5718C98.9439 24.9128 99.353 26.4583 99.3757 28.2083L85.0229 31.0039C85.4775 32.254 86.2389 33.2199 87.3071 33.9017C88.398 34.5836 89.7049 34.9245 91.2277 34.9245ZM90.4777 22.1058C89.3413 22.1058 88.3185 22.3672 87.4094 22.89C86.523 23.4127 85.8298 24.1514 85.3297 25.1059C84.8297 26.0378 84.5797 27.1288 84.5797 28.3788V28.7197L96.137 26.5378C95.8415 25.2196 95.1824 24.1514 94.1596 23.3332C93.1369 22.5149 91.9095 22.1058 90.4777 22.1058Z" fill="white"/>
<path d="M113.466 36.5268C112.989 36.936 112.398 37.2541 111.693 37.4814C110.989 37.686 110.262 37.7883 109.512 37.7883C107.693 37.7883 106.284 37.2996 105.284 36.3223C104.284 35.345 103.784 33.9472 103.784 32.1289V15.5601H107.057V19.5148H112.239V22.2081H107.057V31.9926C107.057 32.9699 107.296 33.7199 107.773 34.2427C108.273 34.7654 108.977 35.0268 109.887 35.0268C110.887 35.0268 111.739 34.7427 112.443 34.1745L113.466 36.5268Z" fill="white"/>
<path d="M117.405 19.5148H120.678V37.5837H117.405V19.5148ZM119.041 16.0374C118.405 16.0374 117.871 15.8329 117.439 15.4237C117.03 15.0146 116.825 14.5146 116.825 13.9237C116.825 13.3328 117.03 12.8327 117.439 12.4236C117.871 11.9918 118.405 11.7759 119.041 11.7759C119.678 11.7759 120.201 11.9804 120.61 12.3895C121.041 12.7759 121.257 13.2646 121.257 13.8555C121.257 14.4692 121.041 14.9919 120.61 15.4237C120.201 15.8329 119.678 16.0374 119.041 16.0374Z" fill="white"/>
<path d="M143.768 19.5148V37.5837H140.666V34.8563C140.007 35.7882 139.132 36.5155 138.041 37.0382C136.973 37.5383 135.802 37.7883 134.529 37.7883C132.12 37.7883 130.222 37.1291 128.836 35.8109C127.45 34.4699 126.756 32.504 126.756 29.913V19.5148H130.029V29.5379C130.029 31.288 130.45 32.6176 131.291 33.5267C132.132 34.4131 133.336 34.8563 134.904 34.8563C136.632 34.8563 137.995 34.3336 138.995 33.2881C139.995 32.2426 140.496 30.7653 140.496 28.8561V19.5148H143.768Z" fill="white"/>
<path d="M172.602 19.3444C174.875 19.3444 176.67 20.0035 177.989 21.3217C179.33 22.6399 180 24.5946 180 27.1856V37.5837H176.727V27.5606C176.727 25.8105 176.318 24.4923 175.5 23.6059C174.705 22.7195 173.557 22.2763 172.057 22.2763C170.398 22.2763 169.079 22.799 168.102 23.8445C167.125 24.8673 166.636 26.3446 166.636 28.2765V37.5837H163.363V27.5606C163.363 25.8105 162.954 24.4923 162.136 23.6059C161.34 22.7195 160.193 22.2763 158.693 22.2763C157.033 22.2763 155.715 22.799 154.738 23.8445C153.761 24.8673 153.272 26.3446 153.272 28.2765V37.5837H149.999V19.5148H153.135V22.2081C153.795 21.2763 154.658 20.5717 155.726 20.0944C156.795 19.5944 158.011 19.3444 159.374 19.3444C160.784 19.3444 162.034 19.6285 163.125 20.1967C164.215 20.7649 165.056 21.5944 165.647 22.6854C166.329 21.6399 167.272 20.8217 168.477 20.2308C169.704 19.6398 171.079 19.3444 172.602 19.3444Z" fill="white"/>
</svg>
