<svg width="25" height="25" viewBox="0 0 25 25" fill="none" xmlns="http://www.w3.org/2000/svg">
<path d="M22.6564 2.73438H21.8751V1.5625C21.8751 1.4589 21.834 1.35954 21.7607 1.28629C21.6875 1.21303 21.5881 1.17188 21.4845 1.17188H19.922C19.8184 1.17188 19.719 1.21303 19.6458 1.28629C19.5725 1.35954 19.5314 1.4589 19.5314 1.5625V2.73438H17.9689V1.5625C17.9689 1.4589 17.9277 1.35954 17.8545 1.28629C17.7812 1.21303 17.6819 1.17188 17.5783 1.17188H16.0158C15.9122 1.17188 15.8128 1.21303 15.7395 1.28629C15.6663 1.35954 15.6251 1.4589 15.6251 1.5625V2.73438H14.0626V1.5625C14.0626 1.4589 14.0215 1.35954 13.9482 1.28629C13.875 1.21303 13.7756 1.17188 13.672 1.17188H12.1095C12.0059 1.17188 11.9065 1.21303 11.8333 1.28629C11.76 1.35954 11.7189 1.4589 11.7189 1.5625V2.73438H10.1564V1.5625C10.1564 1.4589 10.1152 1.35954 10.042 1.28629C9.96871 1.21303 9.86936 1.17188 9.76576 1.17188H8.20326C8.09966 1.17188 8.0003 1.21303 7.92704 1.28629C7.85379 1.35954 7.81263 1.4589 7.81263 1.5625V2.73438H7.03138C6.72058 2.73438 6.42251 2.85784 6.20274 3.07761C5.98297 3.29738 5.85951 3.59545 5.85951 3.90625V10.1758C4.7077 10.5829 3.68192 11.2833 2.88338 12.2078C2.08484 13.1323 1.54111 14.249 1.30585 15.4478C1.07059 16.6466 1.15192 17.886 1.54181 19.0437C1.9317 20.2015 2.61669 21.2376 3.52919 22.0498C4.4417 22.8621 5.55019 23.4224 6.74533 23.6755C7.94046 23.9286 9.18093 23.8658 10.3444 23.4932C11.5078 23.1206 12.554 22.4512 13.3798 21.5509C14.2055 20.6506 14.7823 19.5506 15.0533 18.3594H23.047C23.2542 18.3594 23.4529 18.2771 23.5994 18.1306C23.7459 17.984 23.8283 17.7853 23.8283 17.5781V3.90625C23.8283 3.59545 23.7048 3.29738 23.485 3.07761C23.2653 2.85784 22.9672 2.73438 22.6564 2.73438ZM20.3126 1.95312H21.0939V2.73438H20.3126V1.95312ZM16.4064 1.95312H17.1876V2.73438H16.4064V1.95312ZM12.5001 1.95312H13.2814V2.73438H12.5001V1.95312ZM8.59388 1.95312H9.37513V2.73438H8.59388V1.95312ZM6.64076 3.90625C6.64076 3.80265 6.68191 3.70329 6.75517 3.63004C6.82842 3.55678 6.92778 3.51562 7.03138 3.51562H7.81263V4.29688C7.8126 4.36947 7.83279 4.44063 7.87095 4.50238C7.9091 4.56414 7.96371 4.61404 8.02865 4.64648L8.8099 5.03711C8.90262 5.08342 9.00994 5.091 9.10825 5.05818C9.20656 5.02536 9.28781 4.95483 9.33412 4.86211C9.38042 4.76939 9.388 4.66207 9.35518 4.56376C9.32236 4.46545 9.25184 4.3842 9.15911 4.33789L8.59388 4.05547V3.51562H11.7189V4.29688C11.7188 4.36947 11.739 4.44063 11.7772 4.50238C11.8154 4.56414 11.87 4.61404 11.9349 4.64648L12.7161 5.03711C12.7621 5.06004 12.812 5.0737 12.8632 5.07732C12.9144 5.08093 12.9658 5.07443 13.0145 5.05818C13.0632 5.04193 13.1082 5.01625 13.1469 4.98261C13.1857 4.94897 13.2174 4.90802 13.2404 4.86211C13.2633 4.8162 13.277 4.76622 13.2806 4.71503C13.2842 4.66384 13.2777 4.61243 13.2614 4.56376C13.2452 4.51508 13.2195 4.47008 13.1859 4.43132C13.1522 4.39257 13.1113 4.36082 13.0654 4.33789L12.5001 4.05547V3.51562H15.6251V4.29688C15.6251 4.36947 15.6453 4.44063 15.6834 4.50238C15.7216 4.56414 15.7762 4.61404 15.8411 4.64648L16.6224 5.03711C16.6683 5.06004 16.7183 5.0737 16.7695 5.07732C16.8207 5.08093 16.8721 5.07443 16.9207 5.05818C16.9694 5.04193 17.0144 5.01625 17.0532 4.98261C17.0919 4.94897 17.1237 4.90802 17.1466 4.86211C17.1695 4.8162 17.1832 4.76622 17.1868 4.71503C17.1904 4.66384 17.1839 4.61243 17.1677 4.56376C17.1514 4.51508 17.1258 4.47008 17.0921 4.43132C17.0585 4.39257 17.0175 4.36082 16.9716 4.33789L16.4064 4.05547V3.51562H19.5314V4.29688C19.5313 4.36947 19.5515 4.44063 19.5897 4.50238C19.6279 4.56414 19.6825 4.61404 19.7474 4.64648L20.5286 5.03711C20.6214 5.08342 20.7287 5.091 20.827 5.05818C20.8757 5.04193 20.9207 5.01625 20.9594 4.98261C20.9982 4.94897 21.0299 4.90802 21.0529 4.86211C21.0758 4.8162 21.0895 4.76622 21.0931 4.71503C21.0967 4.66384 21.0902 4.61243 21.0739 4.56376C21.0577 4.51508 21.032 4.47008 20.9984 4.43132C20.9647 4.39257 20.9238 4.36082 20.8779 4.33789L20.3126 4.05547V3.51562H22.6564C22.76 3.51562 22.8593 3.55678 22.9326 3.63004C23.0058 3.70329 23.047 3.80265 23.047 3.90625V5.85938H6.64076V3.90625ZM8.20326 23.0469C6.60535 23.0437 5.06934 22.4287 3.91086 21.3281C2.75239 20.2275 2.05944 18.7251 1.97442 17.1294C1.8894 15.5338 2.41877 13.9662 3.45374 12.7487C4.48871 11.5313 5.95067 10.7565 7.53919 10.5836C7.57826 10.5793 7.61966 10.5781 7.65951 10.5746C7.81576 10.5611 7.97201 10.5531 8.12826 10.5508C8.20169 10.5508 8.27591 10.5508 8.34974 10.5543C8.46641 10.5572 8.58242 10.563 8.69779 10.5719C8.81497 10.5809 8.93216 10.5953 9.04935 10.6109C9.15091 10.625 9.25286 10.6387 9.35287 10.6574C9.46497 10.6785 9.57552 10.7051 9.68646 10.732C9.78607 10.7566 9.88607 10.7797 9.98372 10.8102C10.0927 10.8426 10.199 10.8816 10.306 10.9199C10.4021 10.9543 10.5013 10.9863 10.5935 11.0254C10.7068 11.0723 10.8165 11.1277 10.9267 11.1816C11.0099 11.2207 11.0954 11.2598 11.1763 11.302L11.1908 11.3105C11.3329 11.3887 11.4693 11.4738 11.6044 11.5617C11.7072 11.6285 11.8064 11.7012 11.9052 11.7742C11.9857 11.834 12.0685 11.8914 12.1462 11.9547C12.2497 12.0391 12.3466 12.1305 12.4447 12.2211C12.5603 12.3284 12.6717 12.4398 12.779 12.5555C12.8701 12.6539 12.9618 12.7508 13.0466 12.8551C13.1099 12.9332 13.1669 13.0152 13.2263 13.0957C13.2993 13.1945 13.3724 13.2938 13.4392 13.3969C13.5017 13.493 13.5607 13.5922 13.6177 13.6906C13.6568 13.7586 13.6958 13.8262 13.7329 13.8953C13.7915 14.0062 13.8451 14.1203 13.897 14.2352C13.9279 14.3031 13.9591 14.3707 13.9872 14.4398C14.0333 14.5516 14.0732 14.6664 14.1126 14.7812C14.14 14.8617 14.1685 14.9418 14.1908 15.0234C14.2201 15.1211 14.2431 15.2207 14.2689 15.3203C14.2943 15.4258 14.3208 15.5309 14.3408 15.6383C14.3607 15.7457 14.3755 15.852 14.39 15.9598C14.4009 16.0379 14.4146 16.116 14.4224 16.198C14.4419 16.3945 14.4533 16.5945 14.4533 16.7969C14.4533 16.9992 14.4419 17.1992 14.4228 17.3969C14.415 17.4773 14.4013 17.5555 14.3904 17.6352C14.1866 19.1324 13.4479 20.5052 12.3105 21.5C11.1732 22.4948 9.71425 23.0443 8.20326 23.0469ZM12.1095 8.98438H14.4533V10.5469H12.1095V8.98438ZM15.2345 8.98438H17.5783V10.5469H15.2345V8.98438ZM18.3595 8.98438H20.7033V10.5469H18.3595V8.98438ZM17.5783 15.2344H15.2345V13.6719H17.5783V15.2344ZM20.7033 12.8906H18.3595V11.3281H20.7033V12.8906ZM17.5783 12.8906H15.2345V11.3281H17.5783V12.8906ZM14.4533 12.8906H14.049C13.9451 12.7344 13.8341 12.5848 13.7185 12.4383C13.7005 12.4156 13.6794 12.3945 13.6622 12.3723L13.6482 12.3555C13.6279 12.3305 13.6064 12.3062 13.5857 12.2816C13.4758 12.1514 13.3613 12.0247 13.2423 11.9016C13.2005 11.8586 13.1591 11.8156 13.1165 11.7738C12.9576 11.6176 12.7943 11.4676 12.6216 11.3281H14.4533V12.8906ZM18.3595 13.6719H20.7033V15.2344H18.3595V13.6719ZM11.3283 10.4977C11.2423 10.4547 11.1525 10.4195 11.065 10.3805C11.0072 10.3547 10.9509 10.327 10.8923 10.3023C10.8615 10.2895 10.8318 10.275 10.8009 10.2633C10.6779 10.2145 10.5521 10.1738 10.4263 10.132C10.3681 10.1125 10.3115 10.0906 10.2529 10.0727C10.2165 10.0617 10.1806 10.05 10.1439 10.0395C10.0868 10.023 10.0267 10.0117 9.97083 9.99687C9.87591 9.97227 9.78099 9.94687 9.6849 9.92617C9.6599 9.9207 9.63568 9.91289 9.61068 9.90781C9.56224 9.89805 9.51341 9.89219 9.46458 9.88359C9.38333 9.86875 9.30208 9.85742 9.22044 9.84453C9.1388 9.83164 9.06419 9.8168 8.98607 9.80781V8.98438H11.3298L11.3283 10.4977ZM23.047 17.5781H15.1911C15.1911 17.5695 15.1911 17.5602 15.1911 17.5516C15.2192 17.301 15.2337 17.049 15.2345 16.7969C15.2345 16.5688 15.2216 16.3434 15.2001 16.1215C15.197 16.0859 15.1923 16.0508 15.1884 16.0156H21.0939C21.1975 16.0156 21.2968 15.9745 21.3701 15.9012C21.4433 15.828 21.4845 15.7286 21.4845 15.625V8.59375C21.4845 8.49015 21.4433 8.39079 21.3701 8.31754C21.2968 8.24428 21.1975 8.20312 21.0939 8.20312H8.59388C8.49028 8.20312 8.39092 8.24428 8.31767 8.31754C8.24441 8.39079 8.20326 8.49015 8.20326 8.59375V9.76562C8.19349 9.76562 8.18411 9.76562 8.17474 9.76562C7.95794 9.76562 7.74232 9.77773 7.52708 9.79844C7.48802 9.80234 7.44896 9.80781 7.4099 9.81211C7.21927 9.83346 7.03047 9.86237 6.84349 9.89883C6.81615 9.9043 6.7888 9.90859 6.76146 9.91445C6.7224 9.92266 6.68138 9.92812 6.64193 9.93672V6.64062H23.047V17.5781Z" fill="white"/>
<path d="M8.20313 11.3281C7.12151 11.3281 6.06418 11.6489 5.16485 12.2498C4.26552 12.8507 3.56458 13.7048 3.15066 14.7041C2.73674 15.7034 2.62845 16.8029 2.83946 17.8638C3.05047 18.9246 3.57132 19.899 4.33614 20.6639C5.10096 21.4287 6.07539 21.9495 7.13623 22.1605C8.19706 22.3716 9.29664 22.2633 10.2959 21.8493C11.2952 21.4354 12.1493 20.7345 12.7502 19.8351C13.3511 18.9358 13.6719 17.8785 13.6719 16.7969C13.6703 15.3469 13.0937 13.9569 12.0684 12.9316C11.0432 11.9063 9.65305 11.3297 8.20313 11.3281ZM8.20313 21.4844C7.27603 21.4844 6.36975 21.2095 5.59889 20.6944C4.82804 20.1793 4.22723 19.4472 3.87244 18.5907C3.51766 17.7342 3.42483 16.7917 3.6057 15.8824C3.78656 14.9731 4.23301 14.1379 4.88856 13.4823C5.54412 12.8268 6.37936 12.3803 7.28864 12.1994C8.19793 12.0186 9.14043 12.1114 9.99696 12.4662C10.8535 12.821 11.5856 13.4218 12.1006 14.1926C12.6157 14.9635 12.8906 15.8698 12.8906 16.7969C12.8893 18.0397 12.395 19.2312 11.5162 20.11C10.6374 20.9887 9.44592 21.483 8.20313 21.4844Z" fill="white"/>
<path d="M8.20304 12.8906C8.09944 12.8906 8.00008 12.9318 7.92683 13.005C7.85357 13.0783 7.81242 13.1776 7.81242 13.2812V16.6352L5.97375 18.4738C5.93644 18.5099 5.90668 18.553 5.88621 18.6006C5.86573 18.6483 5.85496 18.6995 5.85451 18.7514C5.85406 18.8033 5.86394 18.8547 5.88358 18.9027C5.90322 18.9507 5.93223 18.9943 5.9689 19.031C6.00558 19.0677 6.04919 19.0967 6.0972 19.1163C6.14521 19.136 6.19664 19.1459 6.24851 19.1454C6.30038 19.145 6.35164 19.1342 6.39929 19.1137C6.44695 19.0932 6.49006 19.0635 6.52609 19.0262L8.47921 17.073C8.55248 16.9998 8.59365 16.9005 8.59367 16.7969V13.2812C8.59367 13.1776 8.55251 13.0783 8.47926 13.005C8.406 12.9318 8.30664 12.8906 8.20304 12.8906Z" fill="white"/>
</svg>
