<svg width="200" height="200" viewBox="0 0 200 200" fill="none" xmlns="http://www.w3.org/2000/svg">
<path d="M184.375 23.4375H181.25V17.1875C181.25 12.018 177.045 7.8125 171.875 7.8125C166.705 7.8125 162.5 12.018 162.5 17.1875V23.4375H37.5V17.1875C37.5 12.018 33.2945 7.8125 28.125 7.8125C22.9555 7.8125 18.75 12.018 18.75 17.1875V23.4375H15.625C7.00938 23.4375 0 30.4469 0 39.0625V176.562C0 185.178 7.00938 192.188 15.625 192.188H184.375C192.991 192.188 200 185.178 200 176.562V39.0625C200 30.4469 192.991 23.4375 184.375 23.4375ZM168.75 17.1875C168.75 15.4645 170.152 14.0625 171.875 14.0625C173.598 14.0625 175 15.4645 175 17.1875V26.5551C175 26.5578 175 26.5602 175 26.5625C175 26.5648 175 26.5676 175 26.5699V35.9375C175 37.6605 173.598 39.0625 171.875 39.0625C170.152 39.0625 168.75 37.6605 168.75 35.9375V17.1875ZM28.125 14.0625C29.848 14.0625 31.25 15.4645 31.25 17.1875V35.9375C31.25 37.6605 29.848 39.0625 28.125 39.0625C26.402 39.0625 25 37.6605 25 35.9375V26.5664C25 26.5652 25 26.5637 25 26.5625C25 26.5613 25 26.5602 25 26.5586V17.1875C25 15.4645 26.402 14.0625 28.125 14.0625ZM184.375 185.938H15.625C10.4555 185.938 6.25 181.732 6.25 176.562V57.8125H156.25C157.976 57.8125 159.375 56.4133 159.375 54.6875C159.375 52.9617 157.976 51.5625 156.25 51.5625H6.25V39.0625C6.25 33.893 10.4555 29.6875 15.625 29.6875H18.75V35.9375C18.75 41.107 22.9555 45.3125 28.125 45.3125C33.2945 45.3125 37.5 41.107 37.5 35.9375V29.6875H162.5V35.9375C162.5 41.107 166.705 45.3125 171.875 45.3125C177.045 45.3125 181.25 41.107 181.25 35.9375V29.6875H184.375C189.545 29.6875 193.75 33.893 193.75 39.0625V51.5625H187.5C185.774 51.5625 184.375 52.9617 184.375 54.6875C184.375 56.4133 185.774 57.8125 187.5 57.8125H193.75V176.562C193.75 181.732 189.545 185.938 184.375 185.938Z" fill="white"/>
<path d="M175 51.5625H168.75C167.024 51.5625 165.625 52.9617 165.625 54.6875C165.625 56.4133 167.024 57.8125 168.75 57.8125H175C176.726 57.8125 178.125 56.4133 178.125 54.6875C178.125 52.9617 176.726 51.5625 175 51.5625Z" fill="white"/>
<path d="M103.125 79.6875H96.875C95.1492 79.6875 93.75 81.0867 93.75 82.8125C93.75 84.5383 95.1492 85.9375 96.875 85.9375H103.125C104.851 85.9375 106.25 84.5383 106.25 82.8125C106.25 81.0867 104.851 79.6875 103.125 79.6875Z" fill="white"/>
<path d="M103.125 95.3125H96.875C95.1492 95.3125 93.75 96.7117 93.75 98.4375C93.75 100.163 95.1492 101.562 96.875 101.562H103.125C104.851 101.562 106.25 100.163 106.25 98.4375C106.25 96.7117 104.851 95.3125 103.125 95.3125Z" fill="white"/>
<path d="M103.125 110.938H96.875C95.1492 110.938 93.75 112.337 93.75 114.062C93.75 115.788 95.1492 117.188 96.875 117.188H103.125C104.851 117.188 106.25 115.788 106.25 114.062C106.25 112.337 104.851 110.938 103.125 110.938Z" fill="white"/>
<path d="M103.125 126.562H96.875C95.1492 126.562 93.75 127.962 93.75 129.688C93.75 131.413 95.1492 132.812 96.875 132.812H103.125C104.851 132.812 106.25 131.413 106.25 129.688C106.25 127.962 104.851 126.562 103.125 126.562Z" fill="white"/>
<path d="M103.125 142.188H96.875C95.1492 142.188 93.75 143.587 93.75 145.312C93.75 147.038 95.1492 148.438 96.875 148.438H103.125C104.851 148.438 106.25 147.038 106.25 145.312C106.25 143.587 104.851 142.188 103.125 142.188Z" fill="white"/>
<path d="M103.125 157.812H96.875C95.1492 157.812 93.75 159.212 93.75 160.938C93.75 162.663 95.1492 164.062 96.875 164.062H103.125C104.851 164.062 106.25 162.663 106.25 160.938C106.25 159.212 104.851 157.812 103.125 157.812Z" fill="white"/>
<path d="M125 79.6875H118.75C117.024 79.6875 115.625 81.0867 115.625 82.8125C115.625 84.5383 117.024 85.9375 118.75 85.9375H125C126.726 85.9375 128.125 84.5383 128.125 82.8125C128.125 81.0867 126.726 79.6875 125 79.6875Z" fill="white"/>
<path d="M125 95.3125H118.75C117.024 95.3125 115.625 96.7117 115.625 98.4375C115.625 100.163 117.024 101.562 118.75 101.562H125C126.726 101.562 128.125 100.163 128.125 98.4375C128.125 96.7117 126.726 95.3125 125 95.3125Z" fill="white"/>
<path d="M125 110.938H118.75C117.024 110.938 115.625 112.337 115.625 114.062C115.625 115.788 117.024 117.188 118.75 117.188H125C126.726 117.188 128.125 115.788 128.125 114.062C128.125 112.337 126.726 110.938 125 110.938Z" fill="white"/>
<path d="M125 126.562H118.75C117.024 126.562 115.625 127.962 115.625 129.688C115.625 131.413 117.024 132.812 118.75 132.812H125C126.726 132.812 128.125 131.413 128.125 129.688C128.125 127.962 126.726 126.562 125 126.562Z" fill="white"/>
<path d="M125 142.188H118.75C117.024 142.188 115.625 143.587 115.625 145.312C115.625 147.038 117.024 148.438 118.75 148.438H125C126.726 148.438 128.125 147.038 128.125 145.312C128.125 143.587 126.726 142.188 125 142.188Z" fill="white"/>
<path d="M125 157.812H118.75C117.024 157.812 115.625 159.212 115.625 160.938C115.625 162.663 117.024 164.062 118.75 164.062H125C126.726 164.062 128.125 162.663 128.125 160.938C128.125 159.212 126.726 157.812 125 157.812Z" fill="white"/>
<path d="M81.25 79.6875H75C73.2742 79.6875 71.875 81.0867 71.875 82.8125C71.875 84.5383 73.2742 85.9375 75 85.9375H81.25C82.9758 85.9375 84.375 84.5383 84.375 82.8125C84.375 81.0867 82.9758 79.6875 81.25 79.6875Z" fill="white"/>
<path d="M81.25 95.3125H75C73.2742 95.3125 71.875 96.7117 71.875 98.4375C71.875 100.163 73.2742 101.562 75 101.562H81.25C82.9758 101.562 84.375 100.163 84.375 98.4375C84.375 96.7117 82.9758 95.3125 81.25 95.3125Z" fill="white"/>
<path d="M81.25 110.938H75C73.2742 110.938 71.875 112.337 71.875 114.062C71.875 115.788 73.2742 117.188 75 117.188H81.25C82.9758 117.188 84.375 115.788 84.375 114.062C84.375 112.337 82.9758 110.938 81.25 110.938Z" fill="white"/>
<path d="M81.25 126.562H75C73.2742 126.562 71.875 127.962 71.875 129.688C71.875 131.413 73.2742 132.812 75 132.812H81.25C82.9758 132.812 84.375 131.413 84.375 129.688C84.375 127.962 82.9758 126.562 81.25 126.562Z" fill="white"/>
<path d="M81.25 142.188H75C73.2742 142.188 71.875 143.587 71.875 145.312C71.875 147.038 73.2742 148.438 75 148.438H81.25C82.9758 148.438 84.375 147.038 84.375 145.312C84.375 143.587 82.9758 142.188 81.25 142.188Z" fill="white"/>
<path d="M81.25 157.812H75C73.2742 157.812 71.875 159.212 71.875 160.938C71.875 162.663 73.2742 164.062 75 164.062H81.25C82.9758 164.062 84.375 162.663 84.375 160.938C84.375 159.212 82.9758 157.812 81.25 157.812Z" fill="white"/>
<path d="M59.375 79.6875H53.125C51.3992 79.6875 50 81.0867 50 82.8125C50 84.5383 51.3992 85.9375 53.125 85.9375H59.375C61.1008 85.9375 62.5 84.5383 62.5 82.8125C62.5 81.0867 61.1008 79.6875 59.375 79.6875Z" fill="white"/>
<path d="M59.375 95.3125H53.125C51.3992 95.3125 50 96.7117 50 98.4375C50 100.163 51.3992 101.562 53.125 101.562H59.375C61.1008 101.562 62.5 100.163 62.5 98.4375C62.5 96.7117 61.1008 95.3125 59.375 95.3125Z" fill="white"/>
<path d="M59.375 110.938H53.125C51.3992 110.938 50 112.337 50 114.062C50 115.788 51.3992 117.188 53.125 117.188H59.375C61.1008 117.188 62.5 115.788 62.5 114.062C62.5 112.337 61.1008 110.938 59.375 110.938Z" fill="white"/>
<path d="M59.375 126.562H53.125C51.3992 126.562 50 127.962 50 129.688C50 131.413 51.3992 132.812 53.125 132.812H59.375C61.1008 132.812 62.5 131.413 62.5 129.688C62.5 127.962 61.1008 126.562 59.375 126.562Z" fill="white"/>
<path d="M59.375 142.188H53.125C51.3992 142.188 50 143.587 50 145.312C50 147.038 51.3992 148.438 53.125 148.438H59.375C61.1008 148.438 62.5 147.038 62.5 145.312C62.5 143.587 61.1008 142.188 59.375 142.188Z" fill="white"/>
<path d="M59.375 157.812H53.125C51.3992 157.812 50 159.212 50 160.938C50 162.663 51.3992 164.062 53.125 164.062H59.375C61.1008 164.062 62.5 162.663 62.5 160.938C62.5 159.212 61.1008 157.812 59.375 157.812Z" fill="white"/>
<path d="M146.875 79.6875H140.625C138.899 79.6875 137.5 81.0867 137.5 82.8125C137.5 84.5383 138.899 85.9375 140.625 85.9375H146.875C148.601 85.9375 150 84.5383 150 82.8125C150 81.0867 148.601 79.6875 146.875 79.6875Z" fill="white"/>
<path d="M146.875 95.3125H140.625C138.899 95.3125 137.5 96.7117 137.5 98.4375C137.5 100.163 138.899 101.562 140.625 101.562H146.875C148.601 101.562 150 100.163 150 98.4375C150 96.7117 148.601 95.3125 146.875 95.3125Z" fill="white"/>
<path d="M146.875 110.938H140.625C138.899 110.938 137.5 112.337 137.5 114.062C137.5 115.788 138.899 117.188 140.625 117.188H146.875C148.601 117.188 150 115.788 150 114.062C150 112.337 148.601 110.938 146.875 110.938Z" fill="white"/>
<path d="M146.875 126.562H140.625C138.899 126.562 137.5 127.962 137.5 129.688C137.5 131.413 138.899 132.812 140.625 132.812H146.875C148.601 132.812 150 131.413 150 129.688C150 127.962 148.601 126.562 146.875 126.562Z" fill="white"/>
<path d="M146.875 142.188H140.625C138.899 142.188 137.5 143.587 137.5 145.312C137.5 147.038 138.899 148.438 140.625 148.438H146.875C148.601 148.438 150 147.038 150 145.312C150 143.587 148.601 142.188 146.875 142.188Z" fill="white"/>
<path d="M146.875 157.812H140.625C138.899 157.812 137.5 159.212 137.5 160.938C137.5 162.663 138.899 164.062 140.625 164.062H146.875C148.601 164.062 150 162.663 150 160.938C150 159.212 148.601 157.812 146.875 157.812Z" fill="white"/>
<path d="M168.75 79.6875H162.5C160.774 79.6875 159.375 81.0867 159.375 82.8125C159.375 84.5383 160.774 85.9375 162.5 85.9375H168.75C170.476 85.9375 171.875 84.5383 171.875 82.8125C171.875 81.0867 170.476 79.6875 168.75 79.6875Z" fill="white"/>
<path d="M168.75 95.3125H162.5C160.774 95.3125 159.375 96.7117 159.375 98.4375C159.375 100.163 160.774 101.562 162.5 101.562H168.75C170.476 101.562 171.875 100.163 171.875 98.4375C171.875 96.7117 170.476 95.3125 168.75 95.3125Z" fill="white"/>
<path d="M168.75 110.938H162.5C160.774 110.938 159.375 112.337 159.375 114.062C159.375 115.788 160.774 117.188 162.5 117.188H168.75C170.476 117.188 171.875 115.788 171.875 114.062C171.875 112.337 170.476 110.938 168.75 110.938Z" fill="white"/>
<path d="M168.75 126.562H162.5C160.774 126.562 159.375 127.962 159.375 129.688C159.375 131.413 160.774 132.812 162.5 132.812H168.75C170.476 132.812 171.875 131.413 171.875 129.688C171.875 127.962 170.476 126.562 168.75 126.562Z" fill="white"/>
<path d="M168.75 142.188H162.5C160.774 142.188 159.375 143.587 159.375 145.312C159.375 147.038 160.774 148.438 162.5 148.438H168.75C170.476 148.438 171.875 147.038 171.875 145.312C171.875 143.587 170.476 142.188 168.75 142.188Z" fill="white"/>
<path d="M168.75 157.812H162.5C160.774 157.812 159.375 159.212 159.375 160.938C159.375 162.663 160.774 164.062 162.5 164.062H168.75C170.476 164.062 171.875 162.663 171.875 160.938C171.875 159.212 170.476 157.812 168.75 157.812Z" fill="white"/>
<path d="M37.5 79.6875H31.25C29.5242 79.6875 28.125 81.0867 28.125 82.8125C28.125 84.5383 29.5242 85.9375 31.25 85.9375H37.5C39.2258 85.9375 40.625 84.5383 40.625 82.8125C40.625 81.0867 39.2258 79.6875 37.5 79.6875Z" fill="white"/>
<path d="M37.5 95.3125H31.25C29.5242 95.3125 28.125 96.7117 28.125 98.4375C28.125 100.163 29.5242 101.562 31.25 101.562H37.5C39.2258 101.562 40.625 100.163 40.625 98.4375C40.625 96.7117 39.2258 95.3125 37.5 95.3125Z" fill="white"/>
<path d="M37.5 110.938H31.25C29.5242 110.938 28.125 112.337 28.125 114.062C28.125 115.788 29.5242 117.188 31.25 117.188H37.5C39.2258 117.188 40.625 115.788 40.625 114.062C40.625 112.337 39.2258 110.938 37.5 110.938Z" fill="white"/>
<path d="M37.5 126.562H31.25C29.5242 126.562 28.125 127.962 28.125 129.688C28.125 131.413 29.5242 132.812 31.25 132.812H37.5C39.2258 132.812 40.625 131.413 40.625 129.688C40.625 127.962 39.2258 126.562 37.5 126.562Z" fill="white"/>
<path d="M37.5 142.188H31.25C29.5242 142.188 28.125 143.587 28.125 145.312C28.125 147.038 29.5242 148.438 31.25 148.438H37.5C39.2258 148.438 40.625 147.038 40.625 145.312C40.625 143.587 39.2258 142.188 37.5 142.188Z" fill="white"/>
<path d="M37.5 157.812H31.25C29.5242 157.812 28.125 159.212 28.125 160.938C28.125 162.663 29.5242 164.062 31.25 164.062H37.5C39.2258 164.062 40.625 162.663 40.625 160.938C40.625 159.212 39.2258 157.812 37.5 157.812Z" fill="white"/>
</svg>
