<svg width="200" height="172" viewBox="0 0 200 172" fill="none" xmlns="http://www.w3.org/2000/svg">
<path d="M129.177 11.5621H111.99C110.372 11.5621 109.06 12.8563 109.06 14.4526C109.06 16.049 110.372 17.3432 111.99 17.3432H129.177C130.795 17.3432 132.107 16.049 132.107 14.4526C132.107 12.8563 130.795 11.5621 129.177 11.5621Z" fill="white"/>
<path d="M100.841 11.5621H99.448C97.83 11.5621 96.5183 12.8563 96.5183 14.4526C96.5183 16.049 97.83 17.3432 99.448 17.3432H100.841C102.459 17.3432 103.771 16.049 103.771 14.4526C103.771 12.8563 102.459 11.5621 100.841 11.5621Z" fill="white"/>
<path d="M89.2285 11.5621H87.8347C86.2167 11.5621 84.905 12.8563 84.905 14.4526C84.905 16.049 86.2167 17.3432 87.8347 17.3432H89.2285C90.8464 17.3432 92.1582 16.049 92.1582 14.4526C92.1582 12.8563 90.8464 11.5621 89.2285 11.5621Z" fill="white"/>
<path d="M198.398 89.1241L178.762 73.6223C177.47 72.6018 175.74 72.4079 174.248 73.1148C172.755 73.8224 171.829 75.2765 171.829 76.9102V80.617H157.579C155.809 74.6047 152.659 69.0337 148.428 64.3626V6.74458C148.428 3.01965 145.367 0 141.592 0H6.83594C3.06055 0 0 3.01965 0 6.74458V157.369C0 161.094 3.06055 164.114 6.83594 164.114H96.3617C97.966 164.114 99.3648 162.894 99.4129 161.312C99.4629 159.676 98.1324 158.333 96.4844 158.333H6.83594C6.29648 158.333 5.85938 157.902 5.85938 157.369V30.0358H142.569V59.0132C139.368 56.6025 135.839 54.665 132.107 53.246V42.8501C132.107 41.2537 130.795 39.9595 129.177 39.9595H19.2508C17.6328 39.9595 16.3211 41.2537 16.3211 42.8501V86.6868C16.3211 88.2831 17.6328 89.5773 19.2508 89.5773H74.5266C74.4688 90.4688 74.4359 91.3671 74.4359 92.2728C74.4359 115.345 93.4613 134.117 116.846 134.117C124.712 134.117 132.446 131.929 139.098 127.89L142.568 131.314V157.369C142.568 157.9 142.13 158.332 141.592 158.332H110.156C108.538 158.332 107.227 159.627 107.227 161.223C107.227 162.819 108.538 164.113 110.156 164.113H141.592C145.361 164.113 148.428 161.088 148.428 157.369V137.095L149.903 138.55C149.886 139.876 150.386 141.207 151.409 142.217L177.412 167.873C179.626 170.057 182.534 171.149 185.441 171.149C188.349 171.149 191.257 170.057 193.47 167.873C197.898 163.505 197.898 156.398 193.47 152.03L167.466 126.373C166.443 125.364 165.094 124.871 163.75 124.888L152.939 114.221C154.891 111.099 156.43 107.729 157.494 104.207H171.829V107.913C171.829 109.547 172.755 111.001 174.248 111.709C174.843 111.991 175.476 112.13 176.104 112.13C177.05 112.13 177.986 111.815 178.762 111.201L198.399 95.6991C199.416 94.8955 200 93.6973 200 92.4112C200 91.1255 199.416 89.9273 198.398 89.1241ZM5.85938 24.2547V6.74458C5.85938 6.2135 6.29766 5.78107 6.83594 5.78107H141.592C142.13 5.78107 142.569 6.2135 142.569 6.74458V24.2551H5.85938V24.2547ZM55.9672 45.741H126.247V51.4831C123.177 50.7929 120.023 50.4298 116.846 50.4298C110.261 50.4298 104.022 51.9186 98.4559 54.5725H55.9672V45.741ZM55.9672 60.3532H89.4578C86.4027 62.9089 83.718 65.8826 81.4953 69.1844H55.9672V60.3532ZM50.1078 83.7966H22.1805V74.9655H50.1082L50.1078 83.7966ZM50.1078 54.5722H42.3828C40.7648 54.5722 39.4531 55.8664 39.4531 57.4627C39.4531 59.059 40.7648 60.3532 42.3828 60.3532H50.1078V69.1844H22.1805V60.3532H28.7109C30.3289 60.3532 31.6406 59.059 31.6406 57.4627C31.6406 55.8664 30.3289 54.5722 28.7109 54.5722H22.1805V45.741H50.1082L50.1078 54.5722ZM75.3113 83.7966H55.9672V74.9655H78.2371C76.9457 77.7593 75.9562 80.7165 75.3113 83.7966ZM139.664 120.446C133.128 125.608 125.238 128.336 116.846 128.336C96.6922 128.336 80.2953 112.158 80.2953 92.2728C80.2953 72.3879 96.6922 56.2105 116.846 56.2105C125.285 56.2105 133.21 58.9662 139.766 64.1795C145.158 68.4679 149.211 74.2124 151.434 80.6163H142.997C138.391 70.5776 128.133 63.9637 116.846 63.9637C101.025 63.9637 88.1539 76.6632 88.1539 92.2728C88.1539 107.883 101.025 120.582 116.846 120.582C127.988 120.582 138.195 114.078 142.862 104.206H151.334C149.077 110.539 145.024 116.214 139.664 120.446ZM136.383 80.6167H97.3141C101.321 74.1049 108.577 69.7452 116.846 69.7452C124.903 69.7452 132.298 73.98 136.383 80.6167ZM97.4934 104.207H136.202C132.079 110.678 124.76 114.801 116.847 114.801C108.696 114.801 101.534 110.563 97.4934 104.207ZM163.818 130.949L189.327 156.117C191.47 158.231 191.47 161.671 189.327 163.785C187.185 165.899 183.698 165.899 181.555 163.785L156.046 138.617L163.818 130.949ZM158.57 127.952L153.009 133.439L143.92 124.471C145.947 122.81 147.805 120.969 149.475 118.979L158.57 127.952ZM177.688 104.645V101.316C177.688 99.7196 176.376 98.4254 174.758 98.4254H94.8859C94.3219 96.4684 94.0133 94.4061 94.0133 92.2732C94.0133 90.2406 94.2922 88.2723 94.8059 86.3977H174.758C176.376 86.3977 177.688 85.1035 177.688 83.5072V80.1777L193.184 92.4116L177.688 104.645Z" fill="white"/>
<path d="M19.2507 104.267H65.625C67.2429 104.267 68.5546 102.973 68.5546 101.376C68.5546 99.7801 67.2429 98.4859 65.625 98.4859H19.2507C17.6328 98.4859 16.321 99.7801 16.321 101.376C16.321 102.973 17.6328 104.267 19.2507 104.267Z" fill="white"/>
<path d="M19.2507 118.055H65.625C67.2429 118.055 68.5546 116.761 68.5546 115.165C68.5546 113.568 67.2429 112.274 65.625 112.274H19.2507C17.6328 112.274 16.321 113.568 16.321 115.165C16.321 116.761 17.6328 118.055 19.2507 118.055Z" fill="white"/>
<path d="M19.2507 131.843H30.0781C31.696 131.843 33.0078 130.549 33.0078 128.953C33.0078 127.357 31.696 126.062 30.0781 126.062H19.2507C17.6328 126.062 16.321 127.357 16.321 128.953C16.321 130.549 17.6328 131.843 19.2507 131.843Z" fill="white"/>
<path d="M36.9141 128.953C36.9141 130.549 38.2258 131.843 39.8438 131.843H79.3129C80.9309 131.843 82.2426 130.549 82.2426 128.953C82.2426 127.357 80.9309 126.062 79.3129 126.062H39.8438C38.2258 126.062 36.9141 127.357 36.9141 128.953Z" fill="white"/>
<path d="M19.2507 145.631H129.177C130.795 145.631 132.107 144.337 132.107 142.741C132.107 141.144 130.795 139.85 129.177 139.85H19.2507C17.6328 139.85 16.321 141.144 16.321 142.741C16.321 144.337 17.6328 145.631 19.2507 145.631Z" fill="white"/>
<path d="M198.57 17.4172L190.763 9.71446C189.841 8.80452 188.615 8.3035 187.311 8.3035H160.795C158.102 8.3035 155.912 10.4645 155.912 13.1211V31.6205C155.912 33.2168 157.223 34.511 158.841 34.511C160.459 34.511 161.771 33.2168 161.771 31.6205V14.0846H186.906L194.141 21.2227V57.4781H161.771V45.1097C161.771 43.5133 160.459 42.2191 158.841 42.2191C157.223 42.2191 155.911 43.5133 155.911 45.1097V58.4416C155.911 61.0982 158.102 63.2591 160.794 63.2591H195.117C197.81 63.2591 200 61.0982 200 58.4416V20.8234C200 19.5365 199.492 18.3267 198.57 17.4172Z" fill="white"/>
<path d="M171.075 28.558H184.837C186.455 28.558 187.767 27.2639 187.767 25.6675C187.767 24.0712 186.455 22.777 184.837 22.777H171.075C169.457 22.777 168.145 24.0712 168.145 25.6675C168.145 27.2639 169.457 28.558 171.075 28.558Z" fill="white"/>
<path d="M171.075 39.5733H184.837C186.455 39.5733 187.767 38.2791 187.767 36.6828C187.767 35.0864 186.455 33.7922 184.837 33.7922H171.075C169.457 33.7922 168.145 35.0864 168.145 36.6828C168.145 38.2791 169.457 39.5733 171.075 39.5733Z" fill="white"/>
<path d="M171.075 50.5886H177.659C179.277 50.5886 180.589 49.2944 180.589 47.698C180.589 46.1017 179.277 44.8075 177.659 44.8075H171.075C169.457 44.8075 168.145 46.1017 168.145 47.698C168.145 49.2944 169.457 50.5886 171.075 50.5886Z" fill="white"/>
</svg>
