<svg width="200" height="56" viewBox="0 0 200 56" fill="none" xmlns="http://www.w3.org/2000/svg">
<path d="M27.8597 17.5187L41.1204 0H0V46.7167H5.96124L20.8035 27.0081L8.51606 8.51606H21.7768L27.8597 17.5187Z" fill="#C0CCF7"/>
<path d="M55.9627 11.6792H49.2715L35.7675 29.5629L47.6899 47.5683H34.4292L28.7113 38.9306L15.8156 55.9627H55.9627V11.6792Z" fill="#F66450"/>
<path d="M84.8792 41.7595L79.0836 34.0698L73.2121 41.7595H69.1589L77.0759 31.4939L69.5377 21.6829H73.5909L79.1214 28.9181L84.6141 21.6829H88.5915L81.0155 31.4939L89.0082 41.7595H84.8792Z" fill="white"/>
<path d="M101.364 38.8048C103.763 38.8048 105.695 37.9967 107.16 36.3805L109.129 38.7291C108.246 39.7897 107.122 40.5978 105.758 41.1534C104.42 41.709 102.917 41.9868 101.25 41.9868C99.129 41.9868 97.2477 41.5574 95.6062 40.6988C93.9647 39.815 92.6894 38.5902 91.7803 37.0244C90.8964 35.4587 90.4545 33.691 90.4545 31.7212C90.4545 29.7767 90.8838 28.0216 91.7424 26.4558C92.6263 24.8901 93.8258 23.678 95.341 22.8193C96.8815 21.9355 98.6113 21.4935 100.531 21.4935C102.349 21.4935 104.003 21.9102 105.493 22.7436C106.983 23.5517 108.17 24.7007 109.054 26.1907C109.938 27.6806 110.392 29.3979 110.417 31.3424L94.4698 34.4486C94.9748 35.8375 95.8208 36.9108 97.0077 37.6684C98.2199 38.426 99.672 38.8048 101.364 38.8048ZM100.531 24.5618C99.2679 24.5618 98.1315 24.8522 97.1214 25.4331C96.1365 26.0139 95.3663 26.8346 94.8107 27.8953C94.2551 28.9307 93.9773 30.1429 93.9773 31.5318V31.9106L106.819 29.4863C106.49 28.0216 105.758 26.8346 104.622 25.9255C103.485 25.0164 102.122 24.5618 100.531 24.5618Z" fill="white"/>
<path d="M126.073 40.5852C125.543 41.0397 124.887 41.3933 124.104 41.6458C123.321 41.8731 122.513 41.9868 121.679 41.9868C119.659 41.9868 118.093 41.4438 116.982 40.3579C115.871 39.272 115.315 37.7189 115.315 35.6986V17.2888H118.952V21.6829H124.71V24.6755H118.952V35.5471C118.952 36.633 119.217 37.4664 119.747 38.0472C120.303 38.628 121.086 38.9185 122.096 38.9185C123.207 38.9185 124.154 38.6028 124.937 37.9714L126.073 40.5852Z" fill="white"/>
<path d="M130.45 21.6829H134.086V41.7595H130.45V21.6829ZM132.268 17.8191C131.561 17.8191 130.968 17.5919 130.488 17.1373C130.033 16.6827 129.806 16.1272 129.806 15.4706C129.806 14.814 130.033 14.2584 130.488 13.8038C130.968 13.324 131.561 13.0841 132.268 13.0841C132.975 13.0841 133.556 13.3114 134.011 13.766C134.49 14.1953 134.73 14.7382 134.73 15.3948C134.73 16.0766 134.49 16.6575 134.011 17.1373C133.556 17.5919 132.975 17.8191 132.268 17.8191Z" fill="white"/>
<path d="M159.743 21.6829V41.7595H156.295V38.7291C155.563 39.7644 154.591 40.5726 153.379 41.1534C152.192 41.709 150.891 41.9868 149.477 41.9868C146.8 41.9868 144.691 41.2544 143.151 39.7897C141.61 38.2997 140.84 36.1153 140.84 33.2364V21.6829H144.477V32.8197C144.477 34.7643 144.944 36.2416 145.878 37.2517C146.813 38.2366 148.151 38.7291 149.894 38.7291C151.813 38.7291 153.328 38.1482 154.439 36.9866C155.55 35.8249 156.106 34.1834 156.106 32.0621V21.6829H159.743Z" fill="white"/>
<path d="M191.78 21.4935C194.305 21.4935 196.3 22.2259 197.765 23.6906C199.255 25.1553 200 27.3271 200 30.206V41.7595H196.364V30.6227C196.364 28.6782 195.909 27.2134 195 26.2286C194.116 25.2437 192.841 24.7512 191.174 24.7512C189.33 24.7512 187.866 25.3321 186.78 26.4937C185.694 27.6301 185.151 29.2716 185.151 31.4182V41.7595H181.514V30.6227C181.514 28.6782 181.06 27.2134 180.151 26.2286C179.267 25.2437 177.992 24.7512 176.325 24.7512C174.481 24.7512 173.017 25.3321 171.931 26.4937C170.845 27.6301 170.302 29.2716 170.302 31.4182V41.7595H166.665V21.6829H170.15V24.6755C170.883 23.6401 171.842 22.8572 173.029 22.3269C174.216 21.7713 175.567 21.4935 177.082 21.4935C178.648 21.4935 180.037 21.8092 181.249 22.4405C182.461 23.0719 183.396 23.9936 184.052 25.2058C184.81 24.0441 185.858 23.135 187.197 22.4784C188.56 21.8218 190.088 21.4935 191.78 21.4935Z" fill="white"/>
</svg>
